<svg version="1.2" xmlns="http://www.w3.org/2000/svg" viewBox="0 0 180 127" width="181" height="128"><style>.a{fill:#ff0800}.b{fill:#fff}</style><path class="a" d="m14 0h151.3c7.7 0 14 6.3 14 14v98.2c0 7.7-6.3 14-14 14h-151.3c-7.7 0-14-6.3-14-14v-98.2c0-7.7 6.3-14 14-14z"/><path class="b" d="m48.7 108.8q-3.1 3.2-7.5 3.2-4.3 0-7.5-3.2-3.1-3.1-3.1-7.4 0-4.4 3.1-7.5 3.2-3.2 7.5-3.2 4.4 0 7.5 3.2 3.2 3.1 3.2 7.5 0 4.3-3.2 7.4zm15.5-83.8q0-2.2 0.8-4 0.9-1.9 2.3-3.3 1.4-1.5 3.3-2.3 1.9-0.8 4.1-0.8 2.1 0 4 0.8 1.9 0.8 3.3 2.3 1.4 1.4 2.3 3.3 0.8 1.8 0.8 4 0 2.1-0.8 4-0.9 1.9-2.3 3.4-1.4 1.4-3.3 2.2-1.9 0.8-4 0.8-2.2 0-4.1-0.8-1.9-0.8-3.3-2.2-1.4-1.5-2.3-3.4-0.8-1.9-0.8-4zm0.6 78.1v-52.1q0-2 0.8-3.7 0.8-1.8 2.1-3.1 1.4-1.3 3.2-2.1 1.9-0.8 3.9-0.8 2 0 3.7 0.8 1.8 0.8 3 2.1 1.4 1.3 2.1 3.1 0.7 1.7 0.7 3.7v52.1q0 2-0.8 3.8-0.7 1.7-2 3-1.3 1.4-3.1 2.2-1.8 0.7-3.7 0.7-2 0-3.9-0.7-1.7-0.8-3.1-2.2-1.3-1.3-2.1-3-0.8-1.8-0.8-3.8zm29.7-26q0-7.4 2.8-13.9 2.8-6.5 7.7-11.3 4.9-4.9 11.3-7.7 6.5-2.9 13.9-2.9 6.3 0 10.1 1.6 3.8 1.6 6.2 4.6v-22.1q0-2.1 0.7-3.9 0.8-1.9 2-3.2 1.3-1.4 3.1-2.2 1.7-0.8 3.9-0.8 2 0 3.8 0.8 1.8 0.8 3.1 2.2 1.3 1.3 2.1 3.2 0.8 1.8 0.8 3.9v51.7q0 7.4-2.9 14-2.8 6.4-7.6 11.2-4.8 4.9-11.4 7.7-6.5 2.8-13.9 2.8-7.4 0-13.9-2.8-6.4-2.8-11.3-7.7-4.9-4.8-7.7-11.2-2.8-6.6-2.8-14zm19.5 0q0 3.4 1.3 6.3 1.3 3 3.5 5.2 2.3 2.2 5.2 3.4 2.9 1.2 6.2 1.2 3.4 0 6.3-1.2 3-1.2 5.2-3.4 2.2-2.2 3.5-5.2 1.3-2.9 1.3-6.3 0-3.3-1.3-6.3-1.3-2.9-3.5-5.1-2.2-2.2-5.2-3.4-2.9-1.3-6.3-1.3-3.3 0-6.2 1.3-2.9 1.2-5.2 3.4-2.2 2.2-3.5 5.1-1.3 3-1.3 6.3z"/></svg>