<svg version="1.2" xmlns="http://www.w3.org/2000/svg" viewBox="0 0 813 127" width="813" height="127"><style>.a{fill:#ff0800}.b{fill:#fff}</style><path  d="m132.6 37.5l-25.7 79.5h-26.5l-14.1-52.2h-0.6l-14.1 52.2h-26l-25.7-79.5h26l14 53.1h0.6l13-53.1h26.3l13 53.1h0.6l14-53.1zm81.4 55.7q-1.6 6.3-6.3 12.1-4.6 5.9-13.2 9.7-8.4 4-20.5 4-12.6 0-21.9-5-9.3-5.1-14.3-14.5-4.9-9.5-4.9-22.1 0-19.5 10.9-30.6 11-11.3 30.2-11.3 18.7 0 29.8 11 11.1 10.8 11.1 30.9l-0.1 4.7h-57.5q0.2 9.4 4.7 15.1 4.5 5.6 12 5.6 7 0 10.6-3.3 3.8-3.3 5-8zm-40.1-41.9q-7.3 0-11.7 4.7-4.3 4.5-4.8 11.7h32.9q-0.3-7.2-4.7-11.7-4.3-4.7-11.7-4.7zm99.9-15.7q9.6 0 17.3 5.1 7.8 5.1 12.1 14.5 4.5 9.5 4.5 22.1 0 12.6-4.5 22-4.3 9.5-12.3 14.6-7.8 5.1-17.7 5.1-7.9 0-14.4-3-6.3-3-9.9-9.5h-0.6v10.5h-22.8v-108.5h23.9v38.5h0.6q3.6-5.4 9.6-8.4 6-3 14.2-3zm-8.1 65.6q8.4 0 13.1-6 4.6-6 4.6-17.9 0-11.7-4.8-17.7-4.6-6-12.9-6-8.1 0-12.9 6-4.6 6-4.6 17.7 0 11.9 4.6 17.9 4.8 6 12.9 6zm90.3-2.1l6.3-0.1v18.1q-2.2 0.2-15 0.2-9.1 0-14.4-1.6-5.2-1.6-7.8-6-2.4-4.4-2.4-12.4v-44.3h-12.4v-15.5h12.4v-22h23.9v22h16.2v15.5h-16.2v38.4q0 4.9 1.9 6.3 2.1 1.3 7.5 1.3zm91.7-5.8q-1.7 6.3-6.3 12.1-4.7 5.9-13.2 9.8-8.4 3.9-20.6 3.9-12.6 0-21.9-5-9.3-5.1-14.2-14.5-5-9.5-5-22.1 0-19.5 11-30.6 10.9-11.2 30.1-11.2 18.8 0 29.9 10.9 11.1 10.8 11.1 30.9l-0.2 4.7h-57.4q0.1 9.4 4.6 15.1 4.5 5.6 12 5.6 7.1 0 10.7-3.3 3.7-3.3 4.9-8zm-40-41.8q-7.4 0-11.7 4.6-4.4 4.5-4.8 11.7h32.8q-0.3-7.2-4.6-11.7-4.4-4.6-11.7-4.6zm89.2 50.2q6.9 0 10.5-4 3.8-4.2 5.3-10.7l24.3 2.6q-3 12.4-12.8 21-9.6 8.5-27.3 8.5-19 0-30-11.1-10.9-11.2-10.9-30.6 0-12.7 4.9-22 5-9.5 14.1-14.6 9.3-5.1 21.9-5.1 17.4 0 26.7 8 9.3 7.9 12.3 18.4l-23.5 4.4q-3.9-13.2-15.5-13.2-7.8 0-12.3 6.1-4.3 6-4.3 18 0 12.2 4.3 18.3 4.5 6 12.3 6zm73.3-53.4h0.5q9.5-12.6 24.9-12.6 12 0 19.7 7.5 7.6 7.4 7.6 21.8v52.2h-23.8v-46.4q0-8.5-3.5-12.3-3.3-3.7-10-3.7-6.3 0-11 5.4-4.5 5.2-4.5 14.5v42.5h-23.8v-108.6h23.9z"/><path class="a" d="m647 0h151.3c7.7 0 14 6.3 14 14v98.2c0 7.7-6.3 14-14 14h-151.3c-7.7 0-14-6.3-14-14v-98.2c0-7.7 6.3-14 14-14z"/><path class="b" d="m681.7 108.8q-3.1 3.2-7.5 3.2-4.3 0-7.5-3.2-3.1-3.1-3.1-7.4 0-4.4 3.1-7.5 3.2-3.2 7.5-3.2 4.4 0 7.5 3.2 3.2 3.1 3.2 7.5 0 4.3-3.2 7.4zm15.5-83.8q0-2.2 0.8-4 0.9-1.9 2.3-3.3 1.4-1.5 3.3-2.3 1.9-0.8 4.1-0.8 2.1 0 4 0.8 1.9 0.8 3.3 2.3 1.4 1.4 2.3 3.3 0.8 1.8 0.8 4 0 2.1-0.8 4-0.9 1.9-2.3 3.4-1.4 1.4-3.3 2.2-1.9 0.8-4 0.8-2.2 0-4.1-0.8-1.9-0.8-3.3-2.2-1.4-1.5-2.3-3.4-0.8-1.9-0.8-4zm0.6 78.1v-52.1q0-2 0.8-3.7 0.8-1.8 2.1-3.1 1.4-1.3 3.2-2.1 1.9-0.8 3.9-0.8 2 0 3.7 0.8 1.8 0.8 3 2.1 1.4 1.3 2.1 3.1 0.7 1.7 0.7 3.7v52.1q0 2-0.8 3.8-0.7 1.7-2 3-1.3 1.4-3.1 2.2-1.8 0.7-3.7 0.7-2 0-3.9-0.7-1.7-0.8-3.1-2.2-1.3-1.3-2.1-3-0.8-1.8-0.8-3.8zm29.7-26q0-7.4 2.8-13.9 2.8-6.5 7.7-11.3 4.9-4.9 11.3-7.7 6.5-2.9 13.9-2.9 6.3 0 10.1 1.6 3.8 1.6 6.2 4.6v-22.1q0-2.1 0.7-3.9 0.8-1.9 2-3.2 1.3-1.4 3.1-2.2 1.7-0.8 3.9-0.8 2 0 3.8 0.8 1.8 0.8 3.1 2.2 1.3 1.3 2.1 3.2 0.8 1.8 0.8 3.9v51.7q0 7.4-2.9 14-2.8 6.4-7.6 11.2-4.8 4.9-11.4 7.7-6.5 2.8-13.9 2.8-7.4 0-13.9-2.8-6.4-2.8-11.3-7.7-4.9-4.8-7.7-11.2-2.8-6.6-2.8-14zm19.5 0q0 3.4 1.3 6.3 1.3 3 3.5 5.2 2.3 2.2 5.2 3.4 2.9 1.2 6.2 1.2 3.4 0 6.3-1.2 3-1.2 5.2-3.4 2.2-2.2 3.5-5.2 1.3-2.9 1.3-6.3 0-3.3-1.3-6.3-1.3-2.9-3.5-5.1-2.2-2.2-5.2-3.4-2.9-1.3-6.3-1.3-3.3 0-6.2 1.3-2.9 1.2-5.2 3.4-2.2 2.2-3.5 5.1-1.3 3-1.3 6.3z"/></svg>